<?xml version="1.0" encoding="utf-8"?>
<!-- Generator: Adobe Illustrator 26.5.0, SVG Export Plug-In . SVG Version: 6.00 Build 0)  -->
<svg version="1.1" id="Layer_1" xmlns="http://www.w3.org/2000/svg" xmlns:xlink="http://www.w3.org/1999/xlink" x="0px" y="0px"
	 viewBox="0 0 678.9 180" style="enable-background:new 0 0 678.9 180;" xml:space="preserve">
<style type="text/css">
	.st0{fill:#FFFFFF;}
	.st1{fill:url(#SVGID_1_);}
	.st2{fill:url(#SVGID_00000005248150492347305240000013664273667284489618_);}
	.st3{fill:url(#SVGID_00000000210331122162844700000004488677161871765124_);}
	.st4{fill:#BCBEC0;}
</style>
<g>
	<g>
		<path class="st0" d="M187.7,48.2h48.2v14.4h-31.2v18.1h24.2v14.5h-24.2v22.1H236v14.4h-48.3V48.2z"/>
		<path class="st0" d="M245.6,48.2H262v59.7c0,2.4,0.1,4.3,0.4,5.8s0.7,2.6,1.3,3.4c0.6,0.8,1.3,1.4,2.3,1.7
			c0.9,0.3,2.1,0.5,3.5,0.5c0.6,0,1.5,0,2.3-0.1c1.3-0.1,3-0.4,3-0.4v12.7c0,0-2.7,0.7-4.5,0.8c-1.7,0.2-3.4,0.2-4.8,0.2
			c-6,0-10.8-1.6-14.4-4.9c-3.6-3.3-5.4-8.7-5.4-16.1V48.2H245.6z"/>
		<path class="st0" d="M293.8,106.8c0.3,4.7,1.9,8,4.9,10.1c2.9,2.1,6.8,3.1,11.6,3.1c2.6,0,6-0.3,8.8-0.8
			c3.1-0.5,10.4-2.1,10.4-2.1v12.6c0,0-11.5,3.5-20.5,3.5c-5.6,0-10.4-0.8-14.4-2.3s-7.3-3.7-9.8-6.5s-4.4-6-5.6-9.8
			s-1.8-7.9-1.8-12.4c0-4.4,0.6-8.6,1.9-12.4c1.2-3.9,3.1-7.3,5.5-10.1c2.4-2.9,5.5-5.1,9.1-6.8s7.8-2.5,12.6-2.5
			c4.2,0,7.9,0.7,11.2,2.2s6,3.5,8.3,6c2.3,2.6,4,5.6,5.2,9.1s1.7,7.3,1.7,11.3c0,1.5-0.1,2.9-0.2,4.4c-0.1,1.4-0.3,2.6-0.4,3.4
			H293.8z M317.4,95.3c-0.2-3.7-1.2-6.7-3.1-9c-1.9-2.3-4.6-3.4-8-3.4c-3.9,0-6.8,1.1-8.8,3.3s-3.2,5.2-3.6,9.2h23.5V95.3z"/>
		<path class="st0" d="M385.6,130.7c0,0-4.1,1.4-8.7,2.1c-2.7,0.4-5.5,0.5-8.5,0.5c-5,0-9.4-0.8-13.1-2.4c-3.7-1.6-6.8-3.8-9.2-6.6
			s-4.3-6.1-5.5-9.9c-1.2-3.8-1.9-8-1.9-12.5c0-4.4,0.6-8.5,1.8-12.3s3-7.1,5.5-10c2.4-2.9,5.5-5.1,9.1-6.7
			c3.6-1.6,7.9-2.4,12.7-2.4c1.7,0,3.3,0,4.7,0.1s4.9,0.5,6.2,0.7c1.8,0.3,7,1.3,7,1.3v13.3c0,0-4.4-0.9-7-1.3
			c-2-0.3-6.7-0.8-8.7-0.7c-4.8,0.3-8.4,1.6-10.9,4.7c-2.4,3.1-3.7,7.6-3.7,13.4c0,6.3,1.3,10.9,4,13.7c2.6,2.9,6.2,4.3,10.7,4.3
			c1.2,0,2.2,0,3.2-0.1c1,0,3.7-0.4,5.4-0.8c2.7-0.6,6.9-2,6.9-2V130.7z"/>
		<g>
			<path class="st0" d="M469.9,89.2c0,28.8-16.3,44.1-36.1,44.1c-20.5,0-35-17.1-35-42.5c0-26.6,15.3-44,36.1-44
				C456.2,46.8,469.9,64.3,469.9,89.2z M409.6,90.5c0,17.9,9,33.9,24.8,33.9c15.9,0,24.9-15.8,24.9-34.8c0-16.6-8.1-34-24.8-34
				C417.9,55.6,409.6,72.2,409.6,90.5z"/>
			<path class="st0" d="M518.9,129.7c-2.7,1.5-8.5,3.5-16,3.5c-16.8,0-27.8-12.3-27.8-30.7c0-18.5,11.8-31.9,30-31.9
				c6,0,11.3,1.6,14.1,3.1l-2.3,8.5c-2.4-1.5-6.2-2.9-11.8-2.9c-12.8,0-19.7,10.2-19.7,22.7c0,13.9,8.3,22.5,19.4,22.5
				c5.8,0,9.6-1.6,12.5-3L518.9,129.7z"/>
			<path class="st0" d="M531.7,103.8c0.2,14.8,9,20.9,19.2,20.9c7.3,0,11.7-1.4,15.5-3.1l1.7,7.8c-3.6,1.7-9.7,3.7-18.6,3.7
				c-17.2,0-27.5-12.2-27.5-30.3s9.9-32.4,26.2-32.4c18.2,0,23.1,17.3,23.1,28.3c0,2.2-0.2,4-0.3,5.1H531.7z M561.5,96
				c0.1-7-2.7-17.8-14.1-17.8c-10.3,0-14.8,10.2-15.6,17.8H561.5z"/>
			<path class="st0" d="M610.7,131.9l-0.8-7.6h-0.3c-3.1,4.7-9.1,8.9-17.1,8.9c-11.3,0-17.1-8.6-17.1-17.3c0-14.5,12-22.5,33.6-22.4
				v-1.2c0-5-1.3-13.9-12.7-13.9c-5.2,0-10.6,1.7-14.5,4.5l-2.3-7.2c4.6-3.2,11.3-5.3,18.3-5.3c17.1,0,21.2,12.5,21.2,24.6v22.5
				c0,5.2,0.2,10.3,0.9,14.4H610.7z M609.2,101.2c-11.1-0.2-23.7,1.9-23.7,13.5c0,7.1,4.4,10.4,9.6,10.4c7.3,0,11.9-5,13.5-10.1
				c0.3-1.1,0.6-2.4,0.6-3.5L609.2,101.2L609.2,101.2z"/>
			<path class="st0" d="M631.4,88.1c0-6.2-0.1-11.3-0.5-16.3h9l0.6,9.9h0.2c2.8-5.7,9.2-11.3,18.5-11.3c7.7,0,19.7,5,19.7,25.6v35.9
				h-10.2V97.2c0-9.7-3.3-17.8-12.9-17.8c-6.7,0-11.9,5.1-13.6,11.2c-0.5,1.4-0.7,3.2-0.7,5.1v36.2h-10.2L631.4,88.1L631.4,88.1z"/>
		</g>
	</g>
	<g>
		
			<linearGradient id="SVGID_1_" gradientUnits="userSpaceOnUse" x1="0" y1="92" x2="159.8" y2="92" gradientTransform="matrix(1 0 0 -1 0 182)">
			<stop  offset="0" style="stop-color:#B4B4B4"/>
			<stop  offset="0.3932" style="stop-color:#CDCDCC"/>
			<stop  offset="0.7548" style="stop-color:#E0DFDF"/>
			<stop  offset="1" style="stop-color:#E7E6E6"/>
		</linearGradient>
		<path class="st1" d="M79.9,10.1C35.8,10.1,0,45.9,0,90s35.8,79.9,79.9,79.9s79.9-35.8,79.9-79.9S124,10.1,79.9,10.1z M79.9,132
			C56.7,132,38,113.2,38,90.1s18.8-41.9,41.9-41.9c23.2,0,41.9,18.8,41.9,41.9S103.1,132,79.9,132z"/>
		
			<linearGradient id="SVGID_00000170254494559038834660000006166980810786711979_" gradientUnits="userSpaceOnUse" x1="118.0419" y1="85.4455" x2="-38.7307" y2="85.4455" gradientTransform="matrix(1 0 0 -1 0 182)">
			<stop  offset="0" style="stop-color:#F0F0F0"/>
			<stop  offset="1" style="stop-color:#C8C8C8"/>
		</linearGradient>
		<path style="fill:url(#SVGID_00000170254494559038834660000006166980810786711979_);" d="M45.4,162.1c-27.7-33.2-12.5-72-4.7-87.1
			c6-15.7,21.3-26.9,39.2-26.9c15.8,0,29.5,8.7,36.7,21.6c-8.2-18.4-47.6-50.4-95-34.3C8.2,49.7,0,68.9,0,90
			C0,121.8,18.6,149.2,45.4,162.1z"/>
		
			<linearGradient id="SVGID_00000178192103073287689040000011296641431188393402_" gradientUnits="userSpaceOnUse" x1="31.1943" y1="69.3523" x2="157.7245" y2="47.6014" gradientTransform="matrix(1 0 0 -1 0 182)">
			<stop  offset="0" style="stop-color:#E6E7E8"/>
			<stop  offset="1" style="stop-color:#E7E6E6"/>
		</linearGradient>
		<path style="fill:url(#SVGID_00000178192103073287689040000011296641431188393402_);" d="M159.7,84.8c-5.3,11.5-15,24.3-32.8,35.7
			c-21.5,13.9-44.6,12-50.6,11.2c-9.6-0.8-18.3-4.9-25-11.1c-8.2-7.7-13.4-18.6-13.4-30.7c0-5.3,1-10.4,2.8-15
			c-7.8,15.1-23,53.9,4.7,87.1c1.5,0.7,3.1,1.4,4.7,2c9.2,3.7,19.3,5.8,29.8,5.8c44.1,0,79.9-35.8,79.9-79.9
			C159.8,88.3,159.8,86.5,159.7,84.8z"/>
		<circle class="st0" cx="132.1" cy="39.5" r="5"/>
		<path class="st4" d="M109.7,121C99.4,130.1,77,131.9,77,131.9c6.8,0.8,29.1,2.1,49.9-11.3c17.8-11.5,27.5-24.2,32.8-35.7
			c-0.2-3.6-0.7-7-1.4-10.5c-1.3-6.7-3.5-13.1-6.4-19.1c-0.8-1.7-1.8-3.4-2.7-5.1v0.1c-1.2,2.8-2.2,6.3-2.9,10.7
			c-0.6,3.7-2.9,6.5-5,7.5c0.1-0.3,0.1-0.5,0.2-0.8c2.1-7.2,2.2-12.1-2.2-13.7c-1.3-0.4-2.9-0.6-4.9-0.4c-8.5,0.8-12.9,14.3-6,21.4
			s1.6,17.5-2,18.4c-1.2,0.3-3,0.5-4.8,0.9C121.5,94.4,117.7,113.9,109.7,121z"/>
		<circle class="st0" cx="106.4" cy="87.7" r="3.3"/>
		<path class="st0" d="M138.2,64.3c2.8-9.2,2.1-14.8-7.1-14.1c-8.5,0.8-12.9,14.3-6,21.4s1.6,17.5-2,18.4s-12.6,0.6-8.9,10.2
			c0.6,2.8,7.4,12.2-6.9,15.2c-2,0.1-4.2-0.4-6,3.1c0,0-12.1,13.6-28.1,13c0,0,23.1,4.8,49.7-12c17-10.8,42-40.6,39.5-72.4
			c-0.8-9.7-12.8-7.7-16.1,14C145.1,68.8,135.7,72.6,138.2,64.3z"/>
	</g>
</g>
</svg>
