<svg x="0px" y="0px"
	 viewBox="0 0 678.8 180" >
<style type="text/css">
	.st11{fill:#0066B3;}
	.st12{fill:#ABE1FA;}
	.st13{fill:#004B88;}
</style>
<g>
	<g>
		<path class="st11" d="M187.7,48.2h48.2v14.4h-31.2v18.1h24.2v14.5h-24.2v22.1H236v14.4h-48.3V48.2z"/>
		<path class="st11" d="M245.6,48.2H262v59.7c0,2.4,0.1,4.3,0.4,5.8s0.7,2.6,1.3,3.4c0.6,0.8,1.3,1.4,2.3,1.7
			c0.9,0.3,2.1,0.5,3.5,0.5c0.6,0,1.5,0,2.3-0.1c1.3-0.1,3-0.4,3-0.4v12.7c0,0-2.7,0.7-4.5,0.8c-1.7,0.2-3.4,0.2-4.8,0.2
			c-6,0-10.8-1.6-14.4-4.9c-3.6-3.3-5.4-8.7-5.4-16.1L245.6,48.2L245.6,48.2z"/>
		<path class="st11" d="M293.8,106.8c0.3,4.7,1.9,8,4.9,10.1c2.9,2.1,6.8,3.1,11.6,3.1c2.6,0,6-0.3,8.8-0.8
			c3.1-0.5,10.4-2.1,10.4-2.1v12.6c0,0-11.5,3.5-20.5,3.5c-5.6,0-10.4-0.8-14.4-2.3s-7.3-3.7-9.8-6.5s-4.4-6-5.6-9.8
			s-1.8-7.9-1.8-12.4c0-4.4,0.6-8.6,1.9-12.4c1.2-3.9,3.1-7.3,5.5-10.1c2.4-2.9,5.5-5.1,9.1-6.8c3.6-1.7,7.8-2.5,12.6-2.5
			c4.2,0,7.9,0.7,11.2,2.2c3.3,1.5,6,3.5,8.3,6c2.3,2.6,4,5.6,5.2,9.1s1.7,7.3,1.7,11.3c0,1.5-0.1,2.9-0.2,4.4
			c-0.1,1.4-0.3,2.6-0.4,3.4L293.8,106.8L293.8,106.8z M317.4,95.3c-0.2-3.7-1.2-6.7-3.1-9s-4.6-3.4-8-3.4c-3.9,0-6.8,1.1-8.8,3.3
			c-2,2.2-3.2,5.2-3.6,9.2L317.4,95.3L317.4,95.3z"/>
		<path class="st11" d="M385.6,130.6c0,0-4.1,1.4-8.7,2.1c-2.7,0.4-5.5,0.5-8.5,0.5c-5,0-9.4-0.8-13.1-2.4c-3.7-1.6-6.8-3.8-9.2-6.6
			c-2.4-2.8-4.3-6.1-5.5-9.9s-1.9-8-1.9-12.5c0-4.4,0.6-8.5,1.8-12.3c1.2-3.8,3-7.1,5.5-10c2.4-2.9,5.5-5.1,9.1-6.7
			s7.9-2.4,12.7-2.4c1.7,0,3.3,0,4.7,0.1c1.4,0.1,4.9,0.5,6.2,0.7c1.8,0.3,7,1.3,7,1.3v13.3c0,0-4.4-0.9-7-1.3
			c-2-0.3-6.7-0.8-8.7-0.7c-4.8,0.3-8.4,1.6-10.9,4.7s-3.7,7.6-3.7,13.4c0,6.3,1.3,10.9,4,13.7c2.6,2.9,6.2,4.3,10.7,4.3
			c1.2,0,2.2,0,3.2-0.1c1,0,3.7-0.4,5.4-0.8c2.7-0.6,6.9-2,6.9-2V130.6z"/>
		<g>
			<path class="st11" d="M469.9,89.1c0,28.8-16.3,44.1-36.1,44.1c-20.5,0-35-17.1-35-42.5c0-26.6,15.3-44,36.1-44
				C456.2,46.8,469.9,64.3,469.9,89.1z M409.6,90.5c0,17.9,9,33.9,24.8,33.9c15.9,0,24.9-15.8,24.9-34.8c0-16.6-8.1-34-24.8-34
				C417.9,55.6,409.6,72.1,409.6,90.5z"/>
			<path class="st11" d="M518.9,129.6c-2.7,1.5-8.5,3.5-16,3.5c-16.8,0-27.8-12.3-27.8-30.7c0-18.5,11.8-31.9,30-31.9
				c6,0,11.3,1.6,14.1,3.1l-2.3,8.5c-2.4-1.5-6.2-2.9-11.8-2.9c-12.8,0-19.7,10.2-19.7,22.7c0,13.9,8.3,22.5,19.4,22.5
				c5.8,0,9.6-1.6,12.5-3L518.9,129.6z"/>
			<path class="st11" d="M531.7,103.8c0.2,14.8,9,20.9,19.2,20.9c7.3,0,11.7-1.4,15.5-3.1l1.7,7.8c-3.6,1.7-9.7,3.7-18.6,3.7
				c-17.2,0-27.5-12.2-27.5-30.3s9.9-32.4,26.2-32.4c18.2,0,23.1,17.3,23.1,28.3c0,2.2-0.2,4-0.3,5.1
				C571,103.8,531.7,103.8,531.7,103.8z M561.5,96c0.1-7-2.7-17.8-14.1-17.8c-10.3,0-14.8,10.2-15.6,17.8H561.5z"/>
			<path class="st11" d="M610.7,131.9l-0.8-7.6h-0.3c-3.1,4.7-9.1,8.9-17.1,8.9c-11.3,0-17.1-8.6-17.1-17.3c0-14.5,12-22.5,33.6-22.4
				v-1.2c0-5-1.3-13.9-12.7-13.9c-5.2,0-10.6,1.7-14.5,4.5l-2.3-7.2c4.6-3.2,11.3-5.3,18.3-5.3c17.1,0,21.2,12.5,21.2,24.6v22.5
				c0,5.2,0.2,10.3,0.9,14.4H610.7z M609.2,101.2c-11.1-0.2-23.7,1.9-23.7,13.5c0,7.1,4.4,10.4,9.6,10.4c7.3,0,11.9-5,13.5-10.1
				c0.3-1.1,0.6-2.4,0.6-3.5L609.2,101.2L609.2,101.2z"/>
			<path class="st11" d="M631.4,88c0-6.2-0.1-11.3-0.5-16.3h9l0.6,9.9h0.2c2.8-5.7,9.2-11.3,18.5-11.3c7.7,0,19.7,5,19.7,25.6v35.9
				h-10.2V97.2c0-9.7-3.3-17.8-12.9-17.8c-6.7,0-11.9,5.1-13.6,11.2c-0.5,1.4-0.7,3.2-0.7,5.1v36.2h-10.2V88H631.4z"/>
		</g>
	</g>
	<path class="st11" d="M159.8,89.9c0-1.3-0.1-2.6-0.1-3.9c0-0.1,0-0.2,0-0.3c0-0.3,0-0.6,0-0.9l0,0C157,43.1,122.4,10.1,80,10.1
		c-23,0-43.7,9.7-58.3,25.3l0,0c-0.2,0.2-0.3,0.3-0.4,0.5c-0.4,0.4-0.8,0.9-1.2,1.3c-0.4,0.5-0.9,1-1.3,1.5s-0.8,1-1.2,1.5
		c-0.4,0.5-0.7,0.9-1.1,1.4s-0.8,1.1-1.2,1.6c-0.3,0.4-0.6,0.9-1,1.4c-0.4,0.6-0.8,1.2-1.2,1.8c-0.3,0.4-0.6,0.9-0.9,1.3
		c-0.4,0.6-0.8,1.3-1.2,1.9c-0.3,0.4-0.5,0.9-0.7,1.3c-0.4,0.7-0.7,1.3-1.1,2c-0.2,0.4-0.4,0.9-0.7,1.3c-0.4,0.7-0.7,1.4-1,2.1
		c-0.2,0.4-0.4,0.8-0.6,1.3c-0.3,0.7-0.7,1.5-1,2.2c-0.2,0.4-0.3,0.8-0.5,1.2c-0.3,0.8-0.6,1.6-0.9,2.4c-0.1,0.4-0.3,0.7-0.4,1.1
		c-0.3,0.8-0.6,1.7-0.8,2.5c-0.1,0.3-0.2,0.7-0.3,1c-0.3,0.9-0.5,1.8-0.7,2.8c-0.1,0.2-0.1,0.5-0.2,0.7c-0.2,1-0.5,2-0.7,3.1
		c0,0.1,0,0.2-0.1,0.3C0.5,79.7,0,84.8,0,90c0,0.9,0,1.9,0.1,2.8c0,0.1,0,0.1,0,0.2c0,0.9,0.1,1.9,0.2,2.8c0,0.1,0,0.2,0,0.3
		C3.4,137.4,37.9,170,80,170c34.5,0,63.9-21.8,75.1-52.5C158.1,108.9,159.8,99.6,159.8,89.9z M79.9,131.9c-0.8,0-1.6,0-2.3-0.1
		c-0.5-0.1-0.9-0.1-1.2-0.1c-9.6-0.8-18.3-4.9-25-11.1C43.1,113,38,102.1,38,89.9c0-4.6,0.8-9.1,2.1-13.2l0,0
		c0.2-0.6,0.4-1.2,0.6-1.7v-0.1c0.5-1.3,1-2.5,1.7-3.7c0.1-0.2,0.3-0.5,0.4-0.7c0.1-0.3,0.3-0.5,0.4-0.8c0.2-0.3,0.4-0.7,0.6-1
		c0.1-0.2,0.2-0.3,0.3-0.5c0.7-1.1,1.4-2.2,2.2-3.2c0,0,0,0,0-0.1C54,54.7,66.2,48.1,79.9,48.1c23.2,0,41.9,18.8,41.9,41.9
		C121.9,113.2,103.1,131.9,79.9,131.9z"/>
	<circle class="st12" cx="132.1" cy="39.5" r="5"/>
	<path class="st13" d="M109.7,120.9C99.4,130,77,131.8,77,131.8c6.8,0.8,29.1,2.1,49.9-11.3c17.8-11.5,27.5-24.2,32.8-35.7
		c-0.2-3.6-0.7-7-1.4-10.5c-1.3-6.7-3.5-13.1-6.4-19.1c-0.8-1.7-1.8-3.4-2.7-5.1v0.1c-1.2,2.8-2.2,6.3-2.9,10.7
		c-0.6,3.7-2.9,6.5-5,7.5c0.1-0.3,0.1-0.5,0.2-0.8c2.1-7.2,2.2-12.1-2.2-13.7c-1.3-0.4-2.9-0.6-4.9-0.4c-8.5,0.8-12.9,14.3-6,21.4
		c6.9,7.1,1.6,17.5-2,18.4c-1.2,0.3-3,0.5-4.8,0.9C121.5,94.3,117.7,113.8,109.7,120.9z"/>
	<circle class="st12" cx="106.4" cy="87.6" r="3.3"/>
	<path class="st12" d="M138.2,64.2c2.8-9.2,2.1-14.8-7.1-14.1c-8.5,0.8-12.9,14.3-6,21.4c6.9,7.1,1.6,17.5-2,18.4s-12.6,0.6-8.9,10.2
		c0.6,2.8,7.4,12.2-6.9,15.2c-2,0.2-4.2-0.4-6,3.1c0,0-12.1,13.6-28.1,13c0,0,23.1,4.8,49.7-12c17-10.8,42-40.6,39.5-72.4
		c-0.8-9.7-12.8-7.7-16.1,14C145.1,68.8,135.7,72.6,138.2,64.2z"/>
</g>
</svg>
