<svg x="0px" y="0px" viewBox="0 0 20 6.4">
<style type="text/css">
	.ft0{fill:#FFFFFF;}
	.ft1{fill:#D0D2D3;}
	.ft2{fill:url(#SVGID_1_);}
	.ft3{fill:url(#SVGID_00000139980351572298410610000000584045187656200348_);}
	.ft4{fill:url(#SVGID_00000052088635319894813230000015802844708416917897_);}
	.ft5{fill:#BBBDBF;}
</style>
<g>
	<g>
		<path class="ft0" d="M7.5,1.3h1.2v0.4H8v0.5h0.6v0.4H8V3h0.8v0.4H7.5V1.3z"/>
		<path class="ft0" d="M9,1.3h0.4v1.5c0,0.1,0,0.1,0,0.1c0,0,0,0.1,0,0.1c0,0,0,0,0.1,0c0,0,0.1,0,0.1,0c0,0,0,0,0.1,0
			c0,0,0.1,0,0.1,0v0.3c0,0-0.1,0-0.1,0c0,0-0.1,0-0.1,0c-0.2,0-0.3,0-0.4-0.1C9.1,3.2,9,3,9,2.9V1.3z"/>
		<path class="ft0" d="M10.2,2.7c0,0.1,0,0.2,0.1,0.3c0.1,0.1,0.2,0.1,0.3,0.1c0.1,0,0.2,0,0.2,0C10.9,3,11.1,3,11.1,3v0.3
			c0,0-0.3,0.1-0.5,0.1c-0.1,0-0.3,0-0.4-0.1c-0.1,0-0.2-0.1-0.2-0.2C9.9,3.1,9.9,3,9.9,2.9c0-0.1,0-0.2,0-0.3c0-0.1,0-0.2,0-0.3
			C9.9,2.2,9.9,2.1,10,2c0.1-0.1,0.1-0.1,0.2-0.2c0.1,0,0.2-0.1,0.3-0.1c0.1,0,0.2,0,0.3,0.1C10.9,1.9,11,2,11,2
			c0.1,0.1,0.1,0.1,0.1,0.2c0,0.1,0,0.2,0,0.3c0,0,0,0.1,0,0.1c0,0,0,0.1,0,0.1H10.2z M10.8,2.4c0-0.1,0-0.2-0.1-0.2
			c0-0.1-0.1-0.1-0.2-0.1c-0.1,0-0.2,0-0.2,0.1c-0.1,0.1-0.1,0.1-0.1,0.2H10.8z"/>
		<path class="ft0" d="M12.5,3.3c0,0-0.1,0-0.2,0.1c-0.1,0-0.1,0-0.2,0c-0.1,0-0.2,0-0.3-0.1c-0.1,0-0.2-0.1-0.2-0.2
			c-0.1-0.1-0.1-0.2-0.1-0.3c0-0.1,0-0.2,0-0.3c0-0.1,0-0.2,0-0.3c0-0.1,0.1-0.2,0.1-0.3c0.1-0.1,0.1-0.1,0.2-0.2
			c0.1,0,0.2-0.1,0.3-0.1c0,0,0.1,0,0.1,0c0,0,0.1,0,0.2,0c0,0,0.2,0,0.2,0v0.3c0,0-0.1,0-0.2,0c-0.1,0-0.2,0-0.2,0
			c-0.1,0-0.2,0-0.3,0.1s-0.1,0.2-0.1,0.3c0,0.2,0,0.3,0.1,0.3C11.9,3,12,3.1,12.2,3.1c0,0,0.1,0,0.1,0c0,0,0.1,0,0.1,0
			C12.4,3,12.5,3,12.5,3V3.3z"/>
		<g>
			<path class="ft1" d="M14.7,2.3c0,0.7-0.4,1.1-0.9,1.1c-0.5,0-0.9-0.4-0.9-1.1c0-0.7,0.4-1.1,0.9-1.1C14.3,1.2,14.7,1.7,14.7,2.3z
				 M13.2,2.3c0,0.5,0.2,0.9,0.6,0.9c0.4,0,0.6-0.4,0.6-0.9c0-0.4-0.2-0.9-0.6-0.9C13.4,1.4,13.2,1.9,13.2,2.3z"/>
			<path class="ft1" d="M15.9,3.3c-0.1,0-0.2,0.1-0.4,0.1c-0.4,0-0.7-0.3-0.7-0.8c0-0.5,0.3-0.8,0.8-0.8c0.2,0,0.3,0,0.4,0.1
				l-0.1,0.2c-0.1,0-0.2-0.1-0.3-0.1c-0.3,0-0.5,0.3-0.5,0.6c0,0.4,0.2,0.6,0.5,0.6c0.1,0,0.2,0,0.3-0.1L15.9,3.3z"/>
			<path class="ft1" d="M16.2,2.7c0,0.4,0.2,0.5,0.5,0.5c0.2,0,0.3,0,0.4-0.1l0,0.2c-0.1,0-0.2,0.1-0.5,0.1c-0.4,0-0.7-0.3-0.7-0.8
				c0-0.5,0.3-0.8,0.7-0.8c0.5,0,0.6,0.4,0.6,0.7c0,0.1,0,0.1,0,0.1H16.2z M17,2.5C17,2.3,16.9,2,16.6,2c-0.3,0-0.4,0.3-0.4,0.4H17z
				"/>
			<path class="ft1" d="M18.2,3.4l0-0.2h0c-0.1,0.1-0.2,0.2-0.4,0.2c-0.3,0-0.4-0.2-0.4-0.4c0-0.4,0.3-0.6,0.8-0.6v0
				c0-0.1,0-0.4-0.3-0.4c-0.1,0-0.3,0-0.4,0.1l-0.1-0.2c0.1-0.1,0.3-0.1,0.5-0.1c0.4,0,0.5,0.3,0.5,0.6V3c0,0.1,0,0.3,0,0.4H18.2z
				 M18.2,2.6c-0.3,0-0.6,0-0.6,0.3c0,0.2,0.1,0.3,0.2,0.3c0.2,0,0.3-0.1,0.3-0.3c0,0,0-0.1,0-0.1V2.6z"/>
			<path class="ft1" d="M18.8,2.3c0-0.2,0-0.3,0-0.4H19l0,0.3h0c0.1-0.1,0.2-0.3,0.5-0.3c0.2,0,0.5,0.1,0.5,0.6v0.9h-0.3V2.5
				c0-0.2-0.1-0.4-0.3-0.4c-0.2,0-0.3,0.1-0.3,0.3c0,0,0,0.1,0,0.1v0.9h-0.3V2.3z"/>
		</g>
	</g>
	<g>
		<g>
			<path class="ft0" d="M10,4c0.1-0.1,0.2-0.1,0.3-0.1c0.1,0,0.2,0,0.3,0.1c0.1,0.1,0.1,0.2,0.1,0.3c0,0.1,0,0.2-0.1,0.3
				c-0.1,0.1-0.2,0.1-0.3,0.1c-0.1,0-0.2,0-0.3-0.1C9.9,4.4,9.9,4.3,9.9,4.2C9.9,4.1,9.9,4,10,4z M10.1,4.4c0,0,0.1,0.1,0.2,0.1
				c0.1,0,0.1,0,0.2-0.1c0,0,0.1-0.1,0.1-0.2c0-0.1,0-0.1-0.1-0.2c0,0-0.1-0.1-0.2-0.1c-0.1,0-0.1,0-0.2,0.1c0,0-0.1,0.1-0.1,0.2
				C10.1,4.3,10.1,4.3,10.1,4.4z M10.1,5.4V5H11V4.8h-0.9V4.7h1v0.4h-0.9v0.2h0.9v0.1H10.1z M11,4.6V3.8h0.1v0.8H11z"/>
			<path class="ft0" d="M12.2,4.7c0,0-0.1,0-0.2,0c-0.1,0-0.1,0-0.2,0l-0.3,0V4.3h0.4V4h-0.4V3.9H12v0.5h-0.4v0.2h0.2
				c0.1,0,0.1,0,0.2,0c0.1,0,0.1,0,0.2,0V4.7z M12.6,5.4V5h-0.9V4.9h1.1v0.5H12.6z M12.3,4.8V4.3h-0.2V4.2h0.2V3.9h0.1v0.9H12.3z
				 M12.6,4.8v-1h0.1v1H12.6z"/>
			<path class="ft0" d="M13,5.2V5.1h0.7V4.7c-0.1,0-0.3-0.1-0.4-0.1c-0.1-0.1-0.1-0.2-0.1-0.3c0-0.1,0.1-0.2,0.2-0.3
				c0.1-0.1,0.2-0.1,0.4-0.1c0.2,0,0.3,0,0.4,0.1c0.1,0.1,0.2,0.2,0.2,0.3c0,0.1,0,0.2-0.1,0.3c-0.1,0.1-0.2,0.1-0.4,0.1v0.4h0.7
				v0.1H13z M14,4.5c0.1-0.1,0.1-0.1,0.1-0.2c0-0.1,0-0.2-0.1-0.2C13.9,4,13.8,4,13.7,4c-0.1,0-0.2,0-0.3,0.1
				c-0.1,0.1-0.1,0.1-0.1,0.2c0,0.1,0,0.2,0.1,0.2c0.1,0.1,0.2,0.1,0.3,0.1C13.8,4.6,13.9,4.6,14,4.5z"/>
			<path class="ft0" d="M15.2,4.2c0,0.1,0.1,0.1,0.1,0.1c0,0,0.1,0.1,0.1,0.1c0.1,0,0.1,0.1,0.2,0.1c0,0,0,0-0.1,0.1c0,0,0,0,0,0.1
				c0,0-0.1,0-0.1-0.1c0,0-0.1,0-0.1-0.1c0,0-0.1-0.1-0.1-0.1c0,0-0.1-0.1-0.1-0.1c0,0,0,0.1-0.1,0.1c0,0-0.1,0.1-0.1,0.1
				c0,0-0.1,0.1-0.1,0.1c0,0-0.1,0.1-0.1,0.1c0,0,0,0-0.1,0c0,0,0,0-0.1-0.1c0.1,0,0.1-0.1,0.2-0.1c0.1,0,0.1-0.1,0.1-0.1
				c0,0,0.1-0.1,0.1-0.2c0-0.1,0-0.1,0-0.2V3.9h0.2v0.2C15.1,4.1,15.1,4.2,15.2,4.2z M14.8,5.4V4.9H15v0.4h0.9v0.1H14.8z M15.7,5
				V4.4h-0.3V4.3h0.3V4.1h-0.3V4h0.3V3.8h0.1V5H15.7z"/>
		</g>
		<g>
			<g>
				<path class="ft0" d="M7.7,5.3L7.7,5.3C7.6,5.2,7.5,5.1,7.5,5C7.4,4.9,7.4,4.7,7.4,4.6c0-0.1,0-0.3,0.1-0.4
					c0-0.1,0.1-0.2,0.1-0.3h0.1C7.6,4.2,7.5,4.4,7.5,4.6C7.5,4.8,7.6,5.1,7.7,5.3z"/>
				<path class="ft0" d="M8.4,4.8v0.4H8.3V4.8H7.8V4.7h1.1v0.1H8.4z M8.5,4.3c0,0,0.1,0.1,0.1,0.1c0,0,0.1,0,0.1,0.1
					c0,0,0.1,0,0.1,0c0,0,0,0,0,0c0,0,0,0,0,0c0,0-0.1,0-0.1,0c0,0-0.1,0-0.1-0.1c0,0-0.1,0-0.1-0.1c0,0-0.1-0.1-0.1-0.1
					c0,0,0,0.1-0.1,0.1c0,0-0.1,0.1-0.1,0.1c0,0-0.1,0-0.1,0.1c0,0-0.1,0-0.1,0c0,0,0,0,0,0c0,0,0,0,0,0c0.1,0,0.1,0,0.2,0
					c0.1,0,0.1,0,0.1-0.1c0,0,0.1-0.1,0.1-0.1c0,0,0-0.1,0-0.1H7.9V4.1h0.8v0.1H8.4C8.4,4.2,8.5,4.2,8.5,4.3z"/>
				<path class="ft0" d="M9.1,3.9C9.2,4,9.2,4.1,9.3,4.2c0.1,0.1,0.1,0.3,0.1,0.4c0,0.1,0,0.3-0.1,0.4c0,0.1-0.1,0.2-0.1,0.3H9
					c0.1-0.2,0.2-0.4,0.2-0.7C9.2,4.4,9.2,4.2,9.1,3.9L9.1,3.9z"/>
			</g>
		</g>
	</g>
	<g>
		<linearGradient id="SVGID_1_" gradientUnits="userSpaceOnUse" x1="0" y1="3.2143" x2="6.4285" y2="3.2143">
			<stop  offset="0" style="stop-color:#B3B3B4"/>
			<stop  offset="0.3523" style="stop-color:#CBCBCB"/>
			<stop  offset="0.7379" style="stop-color:#DFDEDE"/>
			<stop  offset="1" style="stop-color:#E6E5E5"/>
		</linearGradient>
		<path class="ft2" d="M3.2,0C1.4,0,0,1.4,0,3.2C0,5,1.4,6.4,3.2,6.4C5,6.4,6.4,5,6.4,3.2C6.4,1.4,5,0,3.2,0z M3.2,4.9
			c-0.9,0-1.7-0.8-1.7-1.7s0.8-1.7,1.7-1.7s1.7,0.8,1.7,1.7S4.1,4.9,3.2,4.9z"/>
		
			<linearGradient id="SVGID_00000088093891786077395750000015880722735414740124_" gradientUnits="userSpaceOnUse" x1="4.7482" y1="3.4756" x2="-1.5576" y2="3.4756">
			<stop  offset="0" style="stop-color:#F0EFEF"/>
			<stop  offset="1" style="stop-color:#C7C7C7"/>
		</linearGradient>
		<path style="fill:url(#SVGID_00000088093891786077395750000015880722735414740124_);" d="M1.8,6.1C0.7,4.8,1.3,3.2,1.6,2.6
			C1.9,2,2.5,1.5,3.2,1.5c0.6,0,1.2,0.4,1.5,0.9C4.4,1.7,2.8,0.4,0.9,1C0.3,1.6,0,2.4,0,3.2C0,4.5,0.7,5.6,1.8,6.1z"/>
		
			<linearGradient id="SVGID_00000004534015897571900700000001874332936137390992_" gradientUnits="userSpaceOnUse" x1="1.2544" y1="4.1263" x2="6.3438" y2="5.0012">
			<stop  offset="0" style="stop-color:#E6E7E7"/>
			<stop  offset="1" style="stop-color:#E6E5E5"/>
		</linearGradient>
		<path style="fill:url(#SVGID_00000004534015897571900700000001874332936137390992_);" d="M6.4,3C6.2,3.5,5.8,4,5.1,4.4
			C4.2,5,3.3,4.9,3.1,4.9c-0.4,0-0.7-0.2-1-0.4C1.7,4.1,1.5,3.7,1.5,3.2c0-0.2,0-0.4,0.1-0.6C1.3,3.2,0.7,4.8,1.8,6.1
			C1.9,6.1,2,6.2,2,6.2c0.4,0.1,0.8,0.2,1.2,0.2C5,6.4,6.4,5,6.4,3.2C6.4,3.1,6.4,3.1,6.4,3z"/>
		<circle class="ft0" cx="5.3" cy="1.2" r="0.2"/>
		<path class="ft5" d="M4.4,4.5C4,4.8,3.1,4.9,3.1,4.9c0.3,0,1.2,0.1,2-0.5C5.8,4,6.2,3.5,6.4,3c0-0.1,0-0.3-0.1-0.4
			C6.3,2.3,6.2,2.1,6.1,1.8C6.1,1.7,6,1.7,6,1.6l0,0C6,1.7,5.9,1.9,5.9,2c0,0.1-0.1,0.3-0.2,0.3c0,0,0,0,0,0C5.8,2,5.8,1.8,5.6,1.8
			c-0.1,0-0.1,0-0.2,0c-0.3,0-0.5,0.6-0.2,0.9c0.3,0.3,0.1,0.7-0.1,0.7c0,0-0.1,0-0.2,0C4.9,3.4,4.7,4.2,4.4,4.5z"/>
		<circle class="ft0" cx="4.3" cy="3.1" r="0.1"/>
		<path class="ft0" d="M5.6,2.2c0.1-0.4,0.1-0.6-0.3-0.6C4.9,1.6,4.8,2.2,5,2.5C5.3,2.8,5.1,3.2,5,3.2c-0.1,0-0.5,0-0.4,0.4
			c0,0.1,0.3,0.5-0.3,0.6c-0.1,0-0.2,0-0.2,0.1c0,0-0.5,0.5-1.1,0.5c0,0,0.9,0.2,2-0.5C5.6,4,6.6,2.8,6.5,1.5C6.5,1.1,6,1.2,5.9,2
			C5.8,2.4,5.5,2.5,5.6,2.2z"/>
	</g>
</g>
</svg>
